<?xml version="1.0" encoding="utf-8" standalone="no"?>
<!DOCTYPE svg PUBLIC "-//W3C//DTD SVG 1.1//EN"
  "http://www.w3.org/Graphics/SVG/1.1/DTD/svg11.dtd">
<svg height="720pt" version="1.1" viewBox="0 0 720 720" width="720pt" xmlns="http://www.w3.org/2000/svg" xmlns:xlink="http://www.w3.org/1999/xlink">
 <metadata>
  <rdf:RDF xmlns:cc="http://creativecommons.org/ns#" xmlns:dc="http://purl.org/dc/elements/1.1/" xmlns:rdf="http://www.w3.org/1999/02/22-rdf-syntax-ns#">
   <cc:Work>
    <dc:type rdf:resource="http://purl.org/dc/dcmitype/StillImage"/>
    <dc:date>2022-04-03T20:16:54.465842</dc:date>
    <dc:format>image/svg+xml</dc:format>
    <dc:creator>
     <cc:Agent>
      <dc:title>Matplotlib v3.4.3, https://matplotlib.org/</dc:title>
     </cc:Agent>
    </dc:creator>
   </cc:Work>
  </rdf:RDF>
 </metadata>
 <defs>
  <style type="text/css">*{stroke-linecap:butt;stroke-linejoin:round;}</style>
 </defs>
 <g id="figure_1">
  <g id="patch_1">
   <path d="M 0 720 
L 720 720 
L 720 0 
L 0 0 
z
" style="fill:#ffffff;"/>
  </g>
  <g id="axes_1">
   <g id="patch_2">
    <path d="M 92.56 638.9375 
L 698.4 638.9375 
L 698.4 21.6 
L 92.56 21.6 
z
" style="fill:#ffffff;"/>
   </g>
   <g id="patch_3">
    <path clip-path="url(#pd77c0a2b33)" d="M 261.496154 638.9375 
L 276.383248 638.9375 
L 276.383248 632.682814 
L 261.496154 632.682814 
z
" style="fill:#1f77b4;fill-opacity:0.5;stroke:#000000;stroke-linejoin:miter;"/>
   </g>
   <g id="patch_4">
    <path clip-path="url(#pd77c0a2b33)" d="M 276.383248 638.9375 
L 291.270342 638.9375 
L 291.270342 635.810157 
L 276.383248 635.810157 
z
" style="fill:#1f77b4;fill-opacity:0.5;stroke:#000000;stroke-linejoin:miter;"/>
   </g>
   <g id="patch_5">
    <path clip-path="url(#pd77c0a2b33)" d="M 291.270342 638.9375 
L 306.157436 638.9375 
L 306.157436 638.9375 
L 291.270342 638.9375 
z
" style="fill:#1f77b4;fill-opacity:0.5;stroke:#000000;stroke-linejoin:miter;"/>
   </g>
   <g id="patch_6">
    <path clip-path="url(#pd77c0a2b33)" d="M 306.157436 638.9375 
L 321.04453 638.9375 
L 321.04453 620.173442 
L 306.157436 620.173442 
z
" style="fill:#1f77b4;fill-opacity:0.5;stroke:#000000;stroke-linejoin:miter;"/>
   </g>
   <g id="patch_7">
    <path clip-path="url(#pd77c0a2b33)" d="M 321.04453 638.9375 
L 335.931624 638.9375 
L 335.931624 626.428128 
L 321.04453 626.428128 
z
" style="fill:#1f77b4;fill-opacity:0.5;stroke:#000000;stroke-linejoin:miter;"/>
   </g>
   <g id="patch_8">
    <path clip-path="url(#pd77c0a2b33)" d="M 335.931624 638.9375 
L 350.818718 638.9375 
L 350.818718 582.645327 
L 335.931624 582.645327 
z
" style="fill:#1f77b4;fill-opacity:0.5;stroke:#000000;stroke-linejoin:miter;"/>
   </g>
   <g id="patch_9">
    <path clip-path="url(#pd77c0a2b33)" d="M 350.818718 638.9375 
L 365.705812 638.9375 
L 365.705812 617.046099 
L 350.818718 617.046099 
z
" style="fill:#1f77b4;fill-opacity:0.5;stroke:#000000;stroke-linejoin:miter;"/>
   </g>
   <g id="patch_10">
    <path clip-path="url(#pd77c0a2b33)" d="M 365.705812 638.9375 
L 380.592906 638.9375 
L 380.592906 573.263298 
L 365.705812 573.263298 
z
" style="fill:#1f77b4;fill-opacity:0.5;stroke:#000000;stroke-linejoin:miter;"/>
   </g>
   <g id="patch_11">
    <path clip-path="url(#pd77c0a2b33)" d="M 380.592906 638.9375 
L 395.48 638.9375 
L 395.48 604.536727 
L 380.592906 604.536727 
z
" style="fill:#1f77b4;fill-opacity:0.5;stroke:#000000;stroke-linejoin:miter;"/>
   </g>
   <g id="patch_12">
    <path clip-path="url(#pd77c0a2b33)" d="M 395.48 638.9375 
L 410.367094 638.9375 
L 410.367094 563.881269 
L 395.48 563.881269 
z
" style="fill:#1f77b4;fill-opacity:0.5;stroke:#000000;stroke-linejoin:miter;"/>
   </g>
   <g id="patch_13">
    <path clip-path="url(#pd77c0a2b33)" d="M 410.367094 638.9375 
L 425.254188 638.9375 
L 425.254188 545.117211 
L 410.367094 545.117211 
z
" style="fill:#1f77b4;fill-opacity:0.5;stroke:#000000;stroke-linejoin:miter;"/>
   </g>
   <g id="patch_14">
    <path clip-path="url(#pd77c0a2b33)" d="M 425.254188 638.9375 
L 440.141282 638.9375 
L 440.141282 570.135955 
L 425.254188 570.135955 
z
" style="fill:#1f77b4;fill-opacity:0.5;stroke:#000000;stroke-linejoin:miter;"/>
   </g>
   <g id="patch_15">
    <path clip-path="url(#pd77c0a2b33)" d="M 440.141282 638.9375 
L 455.028376 638.9375 
L 455.028376 513.843782 
L 440.141282 513.843782 
z
" style="fill:#1f77b4;fill-opacity:0.5;stroke:#000000;stroke-linejoin:miter;"/>
   </g>
   <g id="patch_16">
    <path clip-path="url(#pd77c0a2b33)" d="M 455.028376 638.9375 
L 469.91547 638.9375 
L 469.91547 541.989868 
L 455.028376 541.989868 
z
" style="fill:#1f77b4;fill-opacity:0.5;stroke:#000000;stroke-linejoin:miter;"/>
   </g>
   <g id="patch_17">
    <path clip-path="url(#pd77c0a2b33)" d="M 469.91547 638.9375 
L 484.802564 638.9375 
L 484.802564 457.551608 
L 469.91547 457.551608 
z
" style="fill:#1f77b4;fill-opacity:0.5;stroke:#000000;stroke-linejoin:miter;"/>
   </g>
   <g id="patch_18">
    <path clip-path="url(#pd77c0a2b33)" d="M 484.802564 638.9375 
L 499.689658 638.9375 
L 499.689658 441.914894 
L 484.802564 441.914894 
z
" style="fill:#1f77b4;fill-opacity:0.5;stroke:#000000;stroke-linejoin:miter;"/>
   </g>
   <g id="patch_19">
    <path clip-path="url(#pd77c0a2b33)" d="M 499.689658 638.9375 
L 514.576752 638.9375 
L 514.576752 351.221948 
L 499.689658 351.221948 
z
" style="fill:#1f77b4;fill-opacity:0.5;stroke:#000000;stroke-linejoin:miter;"/>
   </g>
   <g id="patch_20">
    <path clip-path="url(#pd77c0a2b33)" d="M 514.576752 638.9375 
L 529.463846 638.9375 
L 529.463846 485.697695 
L 514.576752 485.697695 
z
" style="fill:#1f77b4;fill-opacity:0.5;stroke:#000000;stroke-linejoin:miter;"/>
   </g>
   <g id="patch_21">
    <path clip-path="url(#pd77c0a2b33)" d="M 529.463846 638.9375 
L 544.35094 638.9375 
L 544.35094 204.236829 
L 529.463846 204.236829 
z
" style="fill:#1f77b4;fill-opacity:0.5;stroke:#000000;stroke-linejoin:miter;"/>
   </g>
   <g id="patch_22">
    <path clip-path="url(#pd77c0a2b33)" d="M 544.35094 638.9375 
L 559.238034 638.9375 
L 559.238034 144.817313 
L 544.35094 144.817313 
z
" style="fill:#1f77b4;fill-opacity:0.5;stroke:#000000;stroke-linejoin:miter;"/>
   </g>
   <g id="patch_23">
    <path clip-path="url(#pd77c0a2b33)" d="M 559.238034 638.9375 
L 574.125128 638.9375 
L 574.125128 298.057118 
L 559.238034 298.057118 
z
" style="fill:#1f77b4;fill-opacity:0.5;stroke:#000000;stroke-linejoin:miter;"/>
   </g>
   <g id="patch_24">
    <path clip-path="url(#pd77c0a2b33)" d="M 574.125128 638.9375 
L 589.012222 638.9375 
L 589.012222 50.997024 
L 574.125128 50.997024 
z
" style="fill:#1f77b4;fill-opacity:0.5;stroke:#000000;stroke-linejoin:miter;"/>
   </g>
   <g id="patch_25">
    <path clip-path="url(#pd77c0a2b33)" d="M 589.012222 638.9375 
L 603.899316 638.9375 
L 603.899316 307.439146 
L 589.012222 307.439146 
z
" style="fill:#1f77b4;fill-opacity:0.5;stroke:#000000;stroke-linejoin:miter;"/>
   </g>
   <g id="patch_26">
    <path clip-path="url(#pd77c0a2b33)" d="M 603.899316 638.9375 
L 618.78641 638.9375 
L 618.78641 185.472771 
L 603.899316 185.472771 
z
" style="fill:#1f77b4;fill-opacity:0.5;stroke:#000000;stroke-linejoin:miter;"/>
   </g>
   <g id="patch_27">
    <path clip-path="url(#pd77c0a2b33)" d="M 618.78641 638.9375 
L 633.673504 638.9375 
L 633.673504 404.386778 
L 618.78641 404.386778 
z
" style="fill:#1f77b4;fill-opacity:0.5;stroke:#000000;stroke-linejoin:miter;"/>
   </g>
   <g id="patch_28">
    <path clip-path="url(#pd77c0a2b33)" d="M 633.673504 638.9375 
L 648.560598 638.9375 
L 648.560598 391.877406 
L 633.673504 391.877406 
z
" style="fill:#1f77b4;fill-opacity:0.5;stroke:#000000;stroke-linejoin:miter;"/>
   </g>
   <g id="patch_29">
    <path clip-path="url(#pd77c0a2b33)" d="M 648.560598 638.9375 
L 663.447692 638.9375 
L 663.447692 576.390641 
L 648.560598 576.390641 
z
" style="fill:#1f77b4;fill-opacity:0.5;stroke:#000000;stroke-linejoin:miter;"/>
   </g>
   <g id="matplotlib.axis_1">
    <g id="xtick_1">
     <g id="line2d_1">
      <defs>
       <path d="M 0 0 
L 0 3.5 
" id="m3a911372ee" style="stroke:#000000;stroke-width:0.8;"/>
      </defs>
      <g>
       <use style="stroke:#000000;stroke-width:0.8;" x="92.56" xlink:href="#m3a911372ee" y="638.9375"/>
      </g>
     </g>
     <g id="text_1">
      <!-- 0 -->
      <g transform="translate(90.06 653.085938)scale(0.1 -0.1)">
       <defs>
        <path d="M 1600 4225 
Q 1250 4225 1012 3687 
Q 775 3150 775 2250 
Q 775 1300 1012 775 
Q 1250 250 1600 250 
Q 1975 250 2187 775 
Q 2400 1300 2400 2250 
Q 2400 3150 2200 3687 
Q 2000 4225 1600 4225 
z
M 1600 50 
Q 1050 50 675 625 
Q 300 1200 300 2250 
Q 300 3225 662 3825 
Q 1025 4425 1600 4425 
Q 2150 4425 2512 3850 
Q 2875 3275 2875 2250 
Q 2875 1225 2512 637 
Q 2150 50 1600 50 
z
" id="SimSun-30" transform="scale(0.015625)"/>
       </defs>
       <use xlink:href="#SimSun-30"/>
      </g>
     </g>
    </g>
    <g id="xtick_2">
     <g id="line2d_2">
      <g>
       <use style="stroke:#000000;stroke-width:0.8;" x="150.813846" xlink:href="#m3a911372ee" y="638.9375"/>
      </g>
     </g>
     <g id="text_2">
      <!-- 1 -->
      <g transform="translate(148.313846 653.085938)scale(0.1 -0.1)">
       <defs>
        <path d="M 1825 4450 
L 1825 650 
Q 1825 450 1950 350 
Q 2075 250 2300 250 
L 2550 250 
L 2550 100 
L 725 100 
L 725 250 
L 950 250 
Q 1200 250 1312 350 
Q 1425 450 1425 650 
L 1425 3675 
Q 1425 3775 1362 3837 
Q 1300 3900 1175 3900 
L 725 3900 
L 725 4050 
L 950 4050 
Q 1250 4050 1437 4150 
Q 1625 4250 1725 4450 
L 1825 4450 
z
" id="SimSun-31" transform="scale(0.015625)"/>
       </defs>
       <use xlink:href="#SimSun-31"/>
      </g>
     </g>
    </g>
    <g id="xtick_3">
     <g id="line2d_3">
      <g>
       <use style="stroke:#000000;stroke-width:0.8;" x="209.067692" xlink:href="#m3a911372ee" y="638.9375"/>
      </g>
     </g>
     <g id="text_3">
      <!-- 2 -->
      <g transform="translate(206.567692 653.085938)scale(0.1 -0.1)">
       <defs>
        <path d="M 2325 3325 
Q 2325 3775 2125 4012 
Q 1925 4250 1525 4250 
Q 1225 4250 1012 4087 
Q 800 3925 800 3675 
Q 800 3525 900 3425 
Q 975 3325 975 3225 
Q 975 3100 912 3037 
Q 850 2975 725 2975 
Q 575 2975 487 3062 
Q 400 3150 400 3350 
Q 400 3875 775 4150 
Q 1150 4425 1575 4425 
Q 2175 4425 2462 4125 
Q 2750 3825 2750 3375 
Q 2750 3075 2612 2775 
Q 2475 2475 2175 2200 
Q 1450 1500 1062 1062 
Q 675 625 600 475 
L 2075 475 
Q 2300 475 2450 650 
Q 2600 825 2650 1175 
L 2800 1175 
L 2650 100 
L 325 100 
L 325 425 
Q 450 650 737 1000 
Q 1025 1350 1500 1825 
Q 1925 2250 2125 2625 
Q 2325 3000 2325 3325 
z
" id="SimSun-32" transform="scale(0.015625)"/>
       </defs>
       <use xlink:href="#SimSun-32"/>
      </g>
     </g>
    </g>
    <g id="xtick_4">
     <g id="line2d_4">
      <g>
       <use style="stroke:#000000;stroke-width:0.8;" x="267.321538" xlink:href="#m3a911372ee" y="638.9375"/>
      </g>
     </g>
     <g id="text_4">
      <!-- 3 -->
      <g transform="translate(264.821538 653.085938)scale(0.1 -0.1)">
       <defs>
        <path d="M 2800 1250 
Q 2800 775 2450 412 
Q 2100 50 1475 50 
Q 1025 50 700 300 
Q 375 550 375 875 
Q 375 1025 475 1137 
Q 575 1250 675 1250 
Q 825 1250 887 1137 
Q 950 1025 950 950 
Q 950 825 900 750 
Q 850 650 850 575 
Q 850 425 1037 325 
Q 1225 225 1450 225 
Q 1900 225 2125 487 
Q 2350 750 2350 1300 
Q 2350 1750 2112 2025 
Q 1875 2300 1225 2300 
L 1225 2475 
Q 1725 2475 1962 2712 
Q 2200 2950 2200 3375 
Q 2200 3725 2012 3987 
Q 1825 4250 1425 4250 
Q 1250 4250 1050 4162 
Q 850 4075 850 3875 
Q 850 3675 900 3625 
Q 950 3575 950 3500 
Q 950 3375 900 3300 
Q 850 3225 725 3225 
Q 625 3225 537 3300 
Q 450 3375 450 3575 
Q 450 3950 775 4187 
Q 1100 4425 1525 4425 
Q 2025 4425 2325 4112 
Q 2625 3800 2625 3450 
Q 2625 3075 2437 2812 
Q 2250 2550 1850 2425 
Q 2400 2225 2600 1900 
Q 2800 1575 2800 1250 
z
" id="SimSun-33" transform="scale(0.015625)"/>
       </defs>
       <use xlink:href="#SimSun-33"/>
      </g>
     </g>
    </g>
    <g id="xtick_5">
     <g id="line2d_5">
      <g>
       <use style="stroke:#000000;stroke-width:0.8;" x="325.575385" xlink:href="#m3a911372ee" y="638.9375"/>
      </g>
     </g>
     <g id="text_5">
      <!-- 4 -->
      <g transform="translate(323.075385 653.085938)scale(0.1 -0.1)">
       <defs>
        <path d="M 2300 575 
Q 2300 400 2400 325 
Q 2500 250 2675 250 
L 2900 250 
L 2900 100 
L 1250 100 
L 1250 250 
L 1525 250 
Q 1725 250 1812 325 
Q 1900 400 1900 575 
L 1900 1400 
L 225 1400 
L 225 1525 
L 2050 4425 
L 2300 4425 
L 2300 1550 
L 2975 1550 
L 2975 1400 
L 2300 1400 
L 2300 575 
z
M 1875 3800 
L 450 1550 
L 1900 1550 
L 1900 3800 
L 1875 3800 
z
" id="SimSun-34" transform="scale(0.015625)"/>
       </defs>
       <use xlink:href="#SimSun-34"/>
      </g>
     </g>
    </g>
    <g id="xtick_6">
     <g id="line2d_6">
      <g>
       <use style="stroke:#000000;stroke-width:0.8;" x="383.829231" xlink:href="#m3a911372ee" y="638.9375"/>
      </g>
     </g>
     <g id="text_6">
      <!-- 5 -->
      <g transform="translate(381.329231 653.085938)scale(0.1 -0.1)">
       <defs>
        <path d="M 1725 2850 
Q 2200 2850 2500 2487 
Q 2800 2125 2800 1525 
Q 2800 850 2487 450 
Q 2175 50 1525 50 
Q 1075 50 725 312 
Q 375 575 375 950 
Q 375 1100 462 1212 
Q 550 1325 700 1325 
Q 850 1325 900 1225 
Q 950 1125 950 1050 
Q 950 900 875 825 
Q 800 725 800 625 
Q 800 425 1037 325 
Q 1275 225 1550 225 
Q 1950 225 2162 550 
Q 2375 875 2375 1475 
Q 2375 1975 2187 2287 
Q 2000 2600 1625 2600 
Q 1350 2600 1150 2500 
Q 950 2400 775 2075 
L 550 2100 
L 675 4375 
L 2725 4375 
L 2650 4000 
L 850 4000 
L 750 2350 
Q 1000 2700 1237 2775 
Q 1475 2850 1725 2850 
z
" id="SimSun-35" transform="scale(0.015625)"/>
       </defs>
       <use xlink:href="#SimSun-35"/>
      </g>
     </g>
    </g>
    <g id="xtick_7">
     <g id="line2d_7">
      <g>
       <use style="stroke:#000000;stroke-width:0.8;" x="442.083077" xlink:href="#m3a911372ee" y="638.9375"/>
      </g>
     </g>
     <g id="text_7">
      <!-- 6 -->
      <g transform="translate(439.583077 653.085938)scale(0.1 -0.1)">
       <defs>
        <path d="M 775 1800 
Q 775 1050 1037 637 
Q 1300 225 1675 225 
Q 2050 225 2250 500 
Q 2450 775 2450 1525 
Q 2450 2025 2237 2300 
Q 2025 2575 1725 2575 
Q 1450 2575 1212 2412 
Q 975 2250 775 1800 
z
M 1750 2825 
Q 2350 2825 2612 2425 
Q 2875 2025 2875 1525 
Q 2875 775 2512 412 
Q 2150 50 1675 50 
Q 1000 50 650 562 
Q 300 1075 300 2050 
Q 300 3200 725 3812 
Q 1150 4425 1875 4425 
Q 2225 4425 2437 4225 
Q 2650 4025 2650 3875 
Q 2650 3725 2587 3650 
Q 2525 3575 2375 3575 
Q 2250 3575 2187 3637 
Q 2125 3700 2125 3825 
Q 2125 3875 2150 3925 
Q 2150 3975 2150 4025 
Q 2150 4125 2075 4187 
Q 2000 4250 1800 4250 
Q 1375 4250 1075 3862 
Q 775 3475 775 2175 
Q 925 2500 1187 2662 
Q 1450 2825 1750 2825 
z
" id="SimSun-36" transform="scale(0.015625)"/>
       </defs>
       <use xlink:href="#SimSun-36"/>
      </g>
     </g>
    </g>
    <g id="xtick_8">
     <g id="line2d_8">
      <g>
       <use style="stroke:#000000;stroke-width:0.8;" x="500.336923" xlink:href="#m3a911372ee" y="638.9375"/>
      </g>
     </g>
     <g id="text_8">
      <!-- 7 -->
      <g transform="translate(497.836923 653.085938)scale(0.1 -0.1)">
       <defs>
        <path d="M 2825 4200 
Q 2300 3350 1987 2537 
Q 1675 1725 1675 1125 
Q 1675 1025 1700 850 
Q 1700 650 1700 400 
Q 1700 200 1637 125 
Q 1575 50 1425 50 
Q 1300 50 1212 137 
Q 1125 225 1125 450 
Q 1125 925 1337 1625 
Q 1550 2325 2475 4000 
L 1225 4000 
Q 950 4000 787 3825 
Q 625 3650 550 3300 
L 400 3325 
L 575 4375 
L 2825 4375 
L 2825 4200 
z
" id="SimSun-37" transform="scale(0.015625)"/>
       </defs>
       <use xlink:href="#SimSun-37"/>
      </g>
     </g>
    </g>
    <g id="xtick_9">
     <g id="line2d_9">
      <g>
       <use style="stroke:#000000;stroke-width:0.8;" x="558.590769" xlink:href="#m3a911372ee" y="638.9375"/>
      </g>
     </g>
     <g id="text_9">
      <!-- 8 -->
      <g transform="translate(556.090769 653.085938)scale(0.1 -0.1)">
       <defs>
        <path d="M 625 1125 
Q 625 725 887 475 
Q 1150 225 1550 225 
Q 2025 225 2237 475 
Q 2450 725 2450 1100 
Q 2450 1425 2150 1725 
Q 1850 2025 1250 2275 
Q 950 2075 787 1775 
Q 625 1475 625 1125 
z
M 2825 1175 
Q 2825 700 2475 375 
Q 2125 50 1550 50 
Q 1025 50 650 375 
Q 275 700 275 1125 
Q 275 1550 487 1850 
Q 700 2150 1100 2375 
Q 750 2550 562 2812 
Q 375 3075 375 3400 
Q 375 3825 700 4125 
Q 1025 4425 1600 4425 
Q 2125 4425 2450 4125 
Q 2775 3825 2775 3400 
Q 2775 3100 2587 2837 
Q 2400 2575 2000 2375 
Q 2425 2125 2625 1825 
Q 2825 1525 2825 1175 
z
M 2425 3375 
Q 2425 3725 2225 3987 
Q 2025 4250 1600 4250 
Q 1125 4250 925 4000 
Q 725 3750 725 3475 
Q 725 3200 1012 2937 
Q 1300 2675 1825 2475 
Q 2125 2625 2275 2850 
Q 2425 3075 2425 3375 
z
" id="SimSun-38" transform="scale(0.015625)"/>
       </defs>
       <use xlink:href="#SimSun-38"/>
      </g>
     </g>
    </g>
    <g id="xtick_10">
     <g id="line2d_10">
      <g>
       <use style="stroke:#000000;stroke-width:0.8;" x="616.844615" xlink:href="#m3a911372ee" y="638.9375"/>
      </g>
     </g>
     <g id="text_10">
      <!-- 9 -->
      <g transform="translate(614.344615 653.085938)scale(0.1 -0.1)">
       <defs>
        <path d="M 700 3050 
Q 700 2500 912 2212 
Q 1125 1925 1450 1925 
Q 1825 1925 2100 2275 
Q 2375 2625 2375 2925 
Q 2375 3525 2175 3887 
Q 1975 4250 1525 4250 
Q 1100 4250 900 3912 
Q 700 3575 700 3050 
z
M 1375 1700 
Q 875 1700 575 2012 
Q 275 2325 275 3025 
Q 275 3625 600 4025 
Q 925 4425 1525 4425 
Q 2150 4425 2500 3925 
Q 2850 3425 2850 2475 
Q 2850 1425 2437 737 
Q 2025 50 1300 50 
Q 975 50 737 200 
Q 500 350 500 600 
Q 500 700 562 800 
Q 625 900 775 900 
Q 925 900 975 787 
Q 1025 675 1025 525 
Q 1025 425 1050 362 
Q 1075 300 1100 275 
Q 1125 250 1187 237 
Q 1250 225 1325 225 
Q 1775 225 2050 725 
Q 2325 1225 2375 2400 
Q 2250 2100 2000 1900 
Q 1750 1700 1375 1700 
z
" id="SimSun-39" transform="scale(0.015625)"/>
       </defs>
       <use xlink:href="#SimSun-39"/>
      </g>
     </g>
    </g>
    <g id="xtick_11">
     <g id="line2d_11">
      <g>
       <use style="stroke:#000000;stroke-width:0.8;" x="675.098462" xlink:href="#m3a911372ee" y="638.9375"/>
      </g>
     </g>
     <g id="text_11">
      <!-- 10 -->
      <g transform="translate(670.098462 653.085938)scale(0.1 -0.1)">
       <use xlink:href="#SimSun-31"/>
       <use x="50" xlink:href="#SimSun-30"/>
      </g>
     </g>
    </g>
    <g id="xtick_12">
     <g id="line2d_12">
      <defs>
       <path d="M 0 0 
L 0 2 
" id="me7e3051429" style="stroke:#000000;stroke-width:0.6;"/>
      </defs>
      <g>
       <use style="stroke:#000000;stroke-width:0.6;" x="121.686923" xlink:href="#me7e3051429" y="638.9375"/>
      </g>
     </g>
    </g>
    <g id="xtick_13">
     <g id="line2d_13">
      <g>
       <use style="stroke:#000000;stroke-width:0.6;" x="179.940769" xlink:href="#me7e3051429" y="638.9375"/>
      </g>
     </g>
    </g>
    <g id="xtick_14">
     <g id="line2d_14">
      <g>
       <use style="stroke:#000000;stroke-width:0.6;" x="238.194615" xlink:href="#me7e3051429" y="638.9375"/>
      </g>
     </g>
    </g>
    <g id="xtick_15">
     <g id="line2d_15">
      <g>
       <use style="stroke:#000000;stroke-width:0.6;" x="296.448462" xlink:href="#me7e3051429" y="638.9375"/>
      </g>
     </g>
    </g>
    <g id="xtick_16">
     <g id="line2d_16">
      <g>
       <use style="stroke:#000000;stroke-width:0.6;" x="354.702308" xlink:href="#me7e3051429" y="638.9375"/>
      </g>
     </g>
    </g>
    <g id="xtick_17">
     <g id="line2d_17">
      <g>
       <use style="stroke:#000000;stroke-width:0.6;" x="412.956154" xlink:href="#me7e3051429" y="638.9375"/>
      </g>
     </g>
    </g>
    <g id="xtick_18">
     <g id="line2d_18">
      <g>
       <use style="stroke:#000000;stroke-width:0.6;" x="471.21" xlink:href="#me7e3051429" y="638.9375"/>
      </g>
     </g>
    </g>
    <g id="xtick_19">
     <g id="line2d_19">
      <g>
       <use style="stroke:#000000;stroke-width:0.6;" x="529.463846" xlink:href="#me7e3051429" y="638.9375"/>
      </g>
     </g>
    </g>
    <g id="xtick_20">
     <g id="line2d_20">
      <g>
       <use style="stroke:#000000;stroke-width:0.6;" x="587.717692" xlink:href="#me7e3051429" y="638.9375"/>
      </g>
     </g>
    </g>
    <g id="xtick_21">
     <g id="line2d_21">
      <g>
       <use style="stroke:#000000;stroke-width:0.6;" x="645.971538" xlink:href="#me7e3051429" y="638.9375"/>
      </g>
     </g>
    </g>
    <g id="text_12">
     <!-- 豆瓣电影评分 -->
     <g transform="translate(335.48 674.078125)scale(0.2 -0.2)">
      <defs>
       <path d="M 725 4625 
L 4875 4625 
L 5200 4950 
L 5650 4475 
L 1450 4475 
Q 1225 4475 950 4400 
L 725 4625 
z
M 1375 1550 
Q 1400 2125 1400 2712 
Q 1400 3300 1375 3725 
L 1750 3500 
L 4575 3500 
L 4825 3750 
L 5175 3400 
L 4950 3250 
Q 4950 2225 4975 1875 
L 4600 1700 
L 4600 1975 
L 1750 1975 
L 1750 1700 
L 1375 1550 
z
M 1750 3350 
L 1750 2125 
L 4600 2125 
L 4600 3350 
L 1750 3350 
z
M 1850 1625 
Q 2575 1000 2650 700 
Q 2725 400 2587 300 
Q 2450 200 2400 200 
Q 2325 200 2300 325 
Q 2250 525 2175 775 
Q 2100 1025 1775 1550 
L 1850 1625 
z
M 4175 1725 
L 4775 1375 
Q 4525 1200 4275 850 
Q 4025 475 3675 0 
L 5275 0 
L 5625 350 
L 6100 -150 
L 1000 -150 
Q 775 -150 500 -225 
L 275 0 
L 3500 0 
Q 3725 425 3912 887 
Q 4100 1350 4175 1725 
z
" id="SimSun-8c46" transform="scale(0.015625)"/>
       <path d="M 3550 4400 
L 3225 4350 
L 3225 325 
L 3525 475 
Q 3450 625 3350 825 
L 3375 875 
Q 3800 475 3850 362 
Q 3900 250 3900 200 
Q 3900 100 3812 0 
Q 3725 -100 3700 -100 
Q 3650 -100 3650 -25 
Q 3625 125 3550 400 
Q 3175 25 3100 -200 
L 2850 100 
Q 2950 225 2950 525 
L 2950 4325 
L 2650 4275 
Q 2675 1800 2450 937 
Q 2225 75 1500 -550 
L 1450 -475 
Q 1975 150 2162 837 
Q 2350 1525 2362 2550 
Q 2375 3575 2350 4650 
L 2675 4400 
Q 3525 4550 3875 4850 
L 4125 4475 
Q 4000 4475 3700 4425 
Q 3775 2475 3887 1875 
Q 4000 1275 4175 875 
Q 4350 475 4725 200 
L 4700 125 
Q 4450 175 4275 -25 
Q 3900 525 3762 1312 
Q 3625 2100 3600 2800 
Q 3575 3500 3550 4400 
z
M 350 4200 
L 1250 4200 
Q 1225 4500 1150 4712 
Q 1075 4925 900 5150 
L 950 5225 
Q 1425 4850 1487 4737 
Q 1550 4625 1550 4550 
Q 1550 4400 1375 4200 
L 1725 4200 
L 1925 4400 
L 2250 4050 
L 1175 4050 
Q 850 4050 575 3975 
L 350 4200 
z
M 725 3800 
Q 1050 3525 1150 3350 
Q 1250 3175 1250 3100 
Q 1250 3025 1162 2900 
Q 1075 2775 1000 2775 
Q 925 2775 900 3100 
Q 850 3400 675 3750 
L 725 3800 
z
M 250 2575 
L 1350 2575 
Q 1600 3225 1725 3950 
L 2150 3675 
L 1975 3550 
Q 1700 3050 1450 2575 
L 1800 2575 
L 2000 2775 
L 2325 2425 
L 1525 2425 
Q 1500 1975 1475 1450 
L 1675 1450 
L 1900 1675 
L 2250 1300 
L 1475 1300 
Q 1325 25 325 -625 
L 300 -550 
Q 1075 200 1175 1300 
L 1150 1300 
Q 825 1300 550 1225 
L 325 1450 
L 1175 1450 
Q 1200 1900 1200 2425 
L 1075 2425 
Q 750 2425 475 2350 
L 250 2575 
z
M 4000 4200 
L 5475 4200 
L 5700 4425 
L 6050 4050 
L 4825 4050 
Q 4500 4050 4225 3975 
L 4000 4200 
z
M 4350 3750 
Q 4775 3400 4837 3250 
Q 4900 3100 4900 3050 
Q 4900 2925 4812 2825 
Q 4725 2725 4700 2725 
Q 4600 2725 4575 3000 
Q 4500 3375 4300 3700 
L 4350 3750 
z
M 4825 -625 
Q 4850 225 4850 1150 
Q 4650 1150 4375 1075 
L 4150 1300 
L 4850 1300 
L 4850 2425 
L 4775 2425 
Q 4450 2425 4175 2350 
L 3950 2575 
L 5025 2575 
Q 5325 3525 5350 3875 
L 5800 3600 
L 5600 3475 
L 5150 2575 
L 5525 2575 
L 5775 2825 
L 6150 2425 
L 5150 2425 
L 5150 1300 
L 5400 1300 
L 5650 1550 
L 6025 1150 
L 5150 1150 
Q 5150 -75 5175 -475 
L 4825 -625 
z
M 4625 5200 
Q 4950 4975 5075 4825 
Q 5200 4675 5200 4600 
Q 5200 4525 5100 4412 
Q 5000 4300 4975 4300 
Q 4900 4300 4875 4500 
Q 4825 4800 4575 5150 
L 4625 5200 
z
" id="SimSun-74e3" transform="scale(0.015625)"/>
       <path d="M 2875 3900 
Q 2875 4625 2850 5225 
L 3425 4950 
L 3225 4775 
L 3225 3900 
L 4750 3900 
L 5000 4150 
L 5350 3800 
L 5125 3625 
Q 5125 1625 5150 1125 
L 4775 950 
L 4775 1250 
L 3225 1250 
L 3225 125 
Q 3225 -150 3525 -150 
L 5250 -150 
Q 5475 -125 5500 112 
Q 5525 350 5550 1075 
L 5675 1075 
Q 5675 450 5762 250 
Q 5850 50 6025 -75 
Q 5925 -275 5775 -362 
Q 5625 -450 5350 -450 
L 3400 -450 
Q 2875 -450 2875 50 
L 2875 1250 
L 1375 1250 
L 1375 900 
L 1000 725 
Q 1025 1575 1025 2475 
Q 1025 3375 1000 4125 
L 1400 3900 
L 2875 3900 
z
M 1375 3750 
L 1375 2675 
L 2875 2675 
L 2875 3750 
L 1375 3750 
z
M 3225 3750 
L 3225 2675 
L 4775 2675 
L 4775 3750 
L 3225 3750 
z
M 1375 2525 
L 1375 1400 
L 2875 1400 
L 2875 2525 
L 1375 2525 
z
M 3225 2525 
L 3225 1400 
L 4775 1400 
L 4775 2525 
L 3225 2525 
z
" id="SimSun-7535" transform="scale(0.015625)"/>
       <path d="M 3325 4625 
Q 3325 3700 3350 3325 
L 3000 3175 
L 3000 3400 
L 1825 3400 
Q 2200 3225 2250 3087 
Q 2300 2950 2175 2825 
L 3125 2825 
L 3425 3125 
L 3875 2675 
L 1100 2675 
Q 775 2675 500 2600 
L 275 2825 
L 1950 2825 
Q 1975 3025 1700 3400 
L 1100 3400 
L 1100 3275 
L 750 3125 
Q 775 3625 775 4150 
Q 775 4675 750 5050 
L 1100 4850 
L 2975 4850 
L 3150 5075 
L 3525 4775 
L 3325 4625 
z
M 1100 4700 
L 1100 4175 
L 3000 4175 
L 3000 4700 
L 1100 4700 
z
M 1100 4025 
L 1100 3550 
L 3000 3550 
L 3000 4025 
L 1100 4025 
z
M 1200 25 
Q 1550 -25 1725 -37 
Q 1900 -50 1900 200 
L 1900 1275 
L 1150 1275 
L 1150 1150 
L 800 1025 
Q 825 1500 825 1837 
Q 825 2175 800 2500 
L 1150 2325 
L 2925 2325 
L 3075 2550 
L 3450 2275 
L 3275 2125 
Q 3275 1600 3300 1150 
L 2950 1025 
L 2950 1275 
L 2225 1275 
L 2225 100 
Q 2250 -400 1775 -525 
Q 1750 -225 1200 -75 
L 1200 25 
z
M 1225 1000 
L 1650 675 
Q 1425 575 1050 200 
Q 675 -200 300 -450 
L 250 -375 
Q 475 -175 787 237 
Q 1100 650 1225 1000 
z
M 2525 900 
Q 3250 625 3337 500 
Q 3425 375 3425 250 
Q 3425 150 3387 25 
Q 3350 -100 3275 -100 
Q 3200 -100 3125 75 
Q 3050 225 2900 400 
Q 2750 575 2475 825 
L 2525 900 
z
M 1150 2175 
L 1150 1425 
L 2950 1425 
L 2950 2175 
L 1150 2175 
z
M 5175 5050 
L 5650 4650 
Q 5400 4600 4900 4075 
Q 4375 3550 3825 3175 
L 3775 3250 
Q 4175 3625 4575 4125 
Q 4975 4625 5175 5050 
z
M 5475 3350 
L 5925 2950 
Q 5725 2925 5050 2300 
Q 4375 1675 3750 1400 
L 3700 1475 
Q 4350 1925 4812 2450 
Q 5275 2975 5475 3350 
z
M 5725 1725 
L 6125 1300 
Q 5875 1250 5350 775 
Q 4800 275 4175 -75 
Q 3550 -425 2975 -575 
L 2950 -500 
Q 3750 -175 4525 462 
Q 5300 1100 5725 1725 
z
" id="SimSun-5f71" transform="scale(0.015625)"/>
       <path d="M 750 4925 
L 825 4975 
Q 1150 4725 1375 4500 
Q 1600 4275 1587 4087 
Q 1575 3900 1487 3812 
Q 1400 3725 1375 3725 
Q 1275 3725 1200 4025 
Q 1100 4425 750 4925 
z
M 225 2900 
L 1250 2900 
L 1425 3175 
L 1800 2875 
L 1625 2675 
L 1625 275 
L 2875 1450 
L 2950 1375 
Q 2550 900 2125 425 
Q 1700 -75 1500 -400 
L 1125 -50 
Q 1275 75 1275 325 
L 1275 2750 
L 925 2750 
Q 725 2750 450 2675 
L 225 2900 
z
M 4250 2050 
Q 4250 150 4275 -475 
L 3875 -625 
Q 3900 175 3900 2050 
L 2750 2050 
Q 2550 2050 2275 1975 
L 2050 2200 
L 3900 2200 
L 3900 4500 
L 3050 4500 
Q 2850 4500 2575 4425 
L 2350 4650 
L 5125 4650 
L 5475 4950 
L 5925 4500 
L 4250 4500 
L 4250 2200 
L 5300 2200 
L 5675 2575 
L 6150 2050 
L 4250 2050 
z
M 2475 4025 
L 2550 4075 
Q 3375 3275 3425 3112 
Q 3475 2950 3475 2875 
Q 3475 2700 3387 2587 
Q 3300 2475 3275 2475 
Q 3200 2475 3150 2700 
Q 3050 3000 2900 3300 
Q 2750 3600 2475 4025 
z
M 5325 4175 
L 5775 3825 
L 5600 3725 
Q 5000 2875 4575 2425 
L 4500 2475 
Q 5050 3325 5325 4175 
z
" id="SimSun-8bc4" transform="scale(0.015625)"/>
       <path d="M 2350 5050 
L 2850 4675 
L 2625 4550 
Q 2200 3750 1687 3125 
Q 1175 2500 375 2025 
L 325 2100 
Q 975 2625 1475 3337 
Q 1975 4050 2350 5050 
z
M 4100 4975 
L 3900 4850 
Q 4175 3850 4800 3300 
Q 5425 2750 6125 2625 
L 6125 2550 
Q 5750 2500 5600 2225 
Q 4775 2675 4287 3425 
Q 3800 4175 3625 5175 
L 4100 4975 
z
M 1375 2625 
L 4225 2625 
L 4475 2875 
L 4825 2525 
L 4625 2375 
Q 4575 400 4375 -12 
Q 4175 -425 3675 -600 
Q 3600 -200 2975 -25 
L 2975 75 
Q 3600 -25 3787 -12 
Q 3975 0 4075 275 
Q 4175 550 4275 2475 
L 2975 2475 
Q 2825 1400 2375 662 
Q 1925 -75 650 -625 
L 600 -525 
Q 1725 50 2112 837 
Q 2500 1625 2575 2475 
L 1800 2475 
L 1575 2425 
L 1375 2625 
z
" id="SimSun-5206" transform="scale(0.015625)"/>
      </defs>
      <use xlink:href="#SimSun-8c46"/>
      <use x="100" xlink:href="#SimSun-74e3"/>
      <use x="200" xlink:href="#SimSun-7535"/>
      <use x="300" xlink:href="#SimSun-5f71"/>
      <use x="400" xlink:href="#SimSun-8bc4"/>
      <use x="500" xlink:href="#SimSun-5206"/>
     </g>
    </g>
   </g>
   <g id="matplotlib.axis_2">
    <g id="ytick_1">
     <g id="line2d_22">
      <defs>
       <path d="M 0 0 
L -3.5 0 
" id="m6fba5e9c29" style="stroke:#000000;stroke-width:0.8;"/>
      </defs>
      <g>
       <use style="stroke:#000000;stroke-width:0.8;" x="92.56" xlink:href="#m6fba5e9c29" y="638.9375"/>
      </g>
     </g>
     <g id="text_13">
      <!-- 0 -->
      <g transform="translate(80.56 642.511719)scale(0.1 -0.1)">
       <use xlink:href="#SimSun-30"/>
      </g>
     </g>
    </g>
    <g id="ytick_2">
     <g id="line2d_23">
      <g>
       <use style="stroke:#000000;stroke-width:0.8;" x="92.56" xlink:href="#m6fba5e9c29" y="560.753926"/>
      </g>
     </g>
     <g id="text_14">
      <!-- 25 -->
      <g transform="translate(75.56 564.328145)scale(0.1 -0.1)">
       <use xlink:href="#SimSun-32"/>
       <use x="50" xlink:href="#SimSun-35"/>
      </g>
     </g>
    </g>
    <g id="ytick_3">
     <g id="line2d_24">
      <g>
       <use style="stroke:#000000;stroke-width:0.8;" x="92.56" xlink:href="#m6fba5e9c29" y="482.570352"/>
      </g>
     </g>
     <g id="text_15">
      <!-- 50 -->
      <g transform="translate(75.56 486.144571)scale(0.1 -0.1)">
       <use xlink:href="#SimSun-35"/>
       <use x="50" xlink:href="#SimSun-30"/>
      </g>
     </g>
    </g>
    <g id="ytick_4">
     <g id="line2d_25">
      <g>
       <use style="stroke:#000000;stroke-width:0.8;" x="92.56" xlink:href="#m6fba5e9c29" y="404.386778"/>
      </g>
     </g>
     <g id="text_16">
      <!-- 75 -->
      <g transform="translate(75.56 407.960997)scale(0.1 -0.1)">
       <use xlink:href="#SimSun-37"/>
       <use x="50" xlink:href="#SimSun-35"/>
      </g>
     </g>
    </g>
    <g id="ytick_5">
     <g id="line2d_26">
      <g>
       <use style="stroke:#000000;stroke-width:0.8;" x="92.56" xlink:href="#m6fba5e9c29" y="326.203204"/>
      </g>
     </g>
     <g id="text_17">
      <!-- 100 -->
      <g transform="translate(70.56 329.777423)scale(0.1 -0.1)">
       <use xlink:href="#SimSun-31"/>
       <use x="50" xlink:href="#SimSun-30"/>
       <use x="100" xlink:href="#SimSun-30"/>
      </g>
     </g>
    </g>
    <g id="ytick_6">
     <g id="line2d_27">
      <g>
       <use style="stroke:#000000;stroke-width:0.8;" x="92.56" xlink:href="#m6fba5e9c29" y="248.01963"/>
      </g>
     </g>
     <g id="text_18">
      <!-- 125 -->
      <g transform="translate(70.56 251.593849)scale(0.1 -0.1)">
       <use xlink:href="#SimSun-31"/>
       <use x="50" xlink:href="#SimSun-32"/>
       <use x="100" xlink:href="#SimSun-35"/>
      </g>
     </g>
    </g>
    <g id="ytick_7">
     <g id="line2d_28">
      <g>
       <use style="stroke:#000000;stroke-width:0.8;" x="92.56" xlink:href="#m6fba5e9c29" y="169.836056"/>
      </g>
     </g>
     <g id="text_19">
      <!-- 150 -->
      <g transform="translate(70.56 173.410275)scale(0.1 -0.1)">
       <use xlink:href="#SimSun-31"/>
       <use x="50" xlink:href="#SimSun-35"/>
       <use x="100" xlink:href="#SimSun-30"/>
      </g>
     </g>
    </g>
    <g id="ytick_8">
     <g id="line2d_29">
      <g>
       <use style="stroke:#000000;stroke-width:0.8;" x="92.56" xlink:href="#m6fba5e9c29" y="91.652482"/>
      </g>
     </g>
     <g id="text_20">
      <!-- 175 -->
      <g transform="translate(70.56 95.226701)scale(0.1 -0.1)">
       <use xlink:href="#SimSun-31"/>
       <use x="50" xlink:href="#SimSun-37"/>
       <use x="100" xlink:href="#SimSun-35"/>
      </g>
     </g>
    </g>
    <g id="ytick_9">
     <g id="line2d_30">
      <defs>
       <path d="M 0 0 
L -2 0 
" id="mfef0f5f1ba" style="stroke:#000000;stroke-width:0.6;"/>
      </defs>
      <g>
       <use style="stroke:#000000;stroke-width:0.6;" x="92.56" xlink:href="#mfef0f5f1ba" y="576.390641"/>
      </g>
     </g>
    </g>
    <g id="ytick_10">
     <g id="line2d_31">
      <g>
       <use style="stroke:#000000;stroke-width:0.6;" x="92.56" xlink:href="#mfef0f5f1ba" y="513.843782"/>
      </g>
     </g>
    </g>
    <g id="ytick_11">
     <g id="line2d_32">
      <g>
       <use style="stroke:#000000;stroke-width:0.6;" x="92.56" xlink:href="#mfef0f5f1ba" y="451.296922"/>
      </g>
     </g>
    </g>
    <g id="ytick_12">
     <g id="line2d_33">
      <g>
       <use style="stroke:#000000;stroke-width:0.6;" x="92.56" xlink:href="#mfef0f5f1ba" y="388.750063"/>
      </g>
     </g>
    </g>
    <g id="ytick_13">
     <g id="line2d_34">
      <g>
       <use style="stroke:#000000;stroke-width:0.6;" x="92.56" xlink:href="#mfef0f5f1ba" y="263.656345"/>
      </g>
     </g>
    </g>
    <g id="ytick_14">
     <g id="line2d_35">
      <g>
       <use style="stroke:#000000;stroke-width:0.6;" x="92.56" xlink:href="#mfef0f5f1ba" y="201.109486"/>
      </g>
     </g>
    </g>
    <g id="ytick_15">
     <g id="line2d_36">
      <g>
       <use style="stroke:#000000;stroke-width:0.6;" x="92.56" xlink:href="#mfef0f5f1ba" y="138.562627"/>
      </g>
     </g>
    </g>
    <g id="ytick_16">
     <g id="line2d_37">
      <g>
       <use style="stroke:#000000;stroke-width:0.6;" x="92.56" xlink:href="#mfef0f5f1ba" y="76.015767"/>
      </g>
     </g>
    </g>
    <g id="text_21">
     <!-- 电影数量 -->
     <g transform="translate(63.981875 370.26875)rotate(-90)scale(0.2 -0.2)">
      <defs>
       <path d="M 1875 1525 
Q 1675 1200 1500 900 
Q 1825 825 2275 725 
Q 2500 975 2725 1525 
L 1875 1525 
z
M 850 4900 
Q 1325 4600 1425 4450 
Q 1525 4300 1525 4225 
Q 1525 4100 1437 3975 
Q 1350 3850 1300 3850 
Q 1225 3850 1150 4100 
Q 1050 4450 775 4850 
L 850 4900 
z
M 3000 4975 
L 3450 4675 
Q 3250 4625 3100 4425 
Q 2925 4225 2525 3825 
L 2450 3875 
Q 2925 4625 3000 4975 
z
M 1875 5250 
L 2425 5000 
L 2225 4825 
L 2225 3675 
L 2850 3675 
L 3125 3950 
L 3550 3525 
L 2225 3525 
L 2225 3300 
Q 2800 3175 2937 3062 
Q 3075 2950 3075 2775 
Q 3075 2700 3050 2587 
Q 3025 2475 2975 2475 
Q 2925 2475 2800 2650 
Q 2600 2925 2225 3175 
L 2225 2400 
L 1925 2200 
L 2275 2050 
Q 2150 2000 1950 1675 
L 2725 1675 
L 2900 1900 
L 3275 1575 
L 3050 1450 
Q 2800 875 2600 650 
Q 3000 550 3137 437 
Q 3275 325 3275 150 
Q 3275 -25 3200 -25 
Q 3125 -25 3025 75 
Q 2750 275 2400 425 
Q 1525 -275 325 -500 
L 300 -425 
Q 1450 -50 2100 550 
Q 1600 725 1125 800 
Q 1225 950 1525 1525 
L 1200 1525 
Q 875 1525 600 1450 
L 375 1675 
L 1575 1675 
Q 1675 1925 1775 2275 
L 1900 2225 
L 1900 3250 
Q 1225 2475 350 2050 
L 300 2125 
Q 1225 2775 1700 3525 
L 1250 3525 
Q 925 3525 650 3450 
L 425 3675 
L 1900 3675 
Q 1900 4575 1875 5250 
z
M 3925 3525 
Q 4050 2075 4525 1100 
Q 4925 1950 5025 3525 
L 3925 3525 
z
M 4050 5250 
L 4625 4925 
Q 4425 4850 4325 4625 
Q 4225 4400 3950 3675 
L 5375 3675 
L 5675 3975 
L 6125 3525 
L 5400 3525 
Q 5250 1675 4750 775 
Q 5325 75 6100 -100 
L 6100 -200 
Q 5625 -275 5600 -500 
Q 4950 -50 4525 525 
Q 3700 -275 2550 -650 
L 2500 -575 
Q 3650 -50 4325 800 
Q 3850 1975 3825 3375 
Q 3575 2725 3100 2150 
L 3025 2200 
Q 3625 3200 4050 5250 
z
" id="SimSun-6570" transform="scale(0.015625)"/>
       <path d="M 1700 2400 
L 1700 1875 
L 3025 1875 
L 3025 2400 
L 1700 2400 
z
M 3350 2400 
L 3350 1875 
L 4625 1875 
L 4625 2400 
L 3350 2400 
z
M 1700 1725 
L 1700 1225 
L 3025 1225 
L 3025 1725 
L 1700 1725 
z
M 3350 1725 
L 3350 1225 
L 4625 1225 
L 4625 1725 
L 3350 1725 
z
M 4950 2325 
Q 4950 1350 4975 1025 
L 4625 875 
L 4625 1075 
L 3350 1075 
L 3350 525 
L 4700 525 
L 5050 825 
L 5450 375 
L 3350 375 
L 3350 -225 
L 5275 -225 
L 5650 125 
L 6075 -375 
L 1175 -375 
Q 850 -375 575 -450 
L 350 -225 
L 3025 -225 
L 3025 375 
L 1725 375 
Q 1400 375 1125 300 
L 900 525 
L 3025 525 
L 3025 1075 
L 1700 1075 
L 1700 925 
L 1350 800 
Q 1375 1300 1375 1787 
Q 1375 2275 1350 2750 
L 1700 2550 
L 4600 2550 
L 4750 2750 
L 5125 2475 
L 4950 2325 
z
M 1775 4800 
L 1775 4375 
L 4550 4375 
L 4550 4800 
L 1775 4800 
z
M 1775 4225 
L 1775 3775 
L 4550 3775 
L 4550 4225 
L 1775 4225 
z
M 4875 4750 
Q 4875 3825 4900 3525 
L 4550 3375 
L 4550 3625 
L 1775 3625 
L 1775 3400 
L 1425 3250 
Q 1450 3650 1450 4262 
Q 1450 4875 1425 5125 
L 1800 4950 
L 4500 4950 
L 4650 5175 
L 5050 4900 
L 4875 4750 
z
M 250 3125 
L 5375 3125 
L 5725 3450 
L 6150 2975 
L 950 2975 
Q 750 2975 475 2900 
L 250 3125 
z
" id="SimSun-91cf" transform="scale(0.015625)"/>
      </defs>
      <use xlink:href="#SimSun-7535"/>
      <use x="100" xlink:href="#SimSun-5f71"/>
      <use x="200" xlink:href="#SimSun-6570"/>
      <use x="300" xlink:href="#SimSun-91cf"/>
     </g>
    </g>
   </g>
   <g id="line2d_38">
    <path clip-path="url(#pd77c0a2b33)" d="M 261.496154 636.235654 
L 269.575582 635.647907 
L 285.734438 634.748293 
L 289.774152 634.232361 
L 293.813865 633.459061 
L 297.853579 632.391041 
L 301.893293 631.021116 
L 305.933007 629.365923 
L 309.972721 627.452681 
L 314.012435 625.305273 
L 318.052149 622.936648 
L 322.091863 620.351922 
L 326.131577 617.561295 
L 332.191148 613.066955 
L 342.290433 605.410057 
L 346.330147 602.562754 
L 350.369861 599.929654 
L 354.409575 597.513633 
L 360.469146 594.23078 
L 366.528717 591.266888 
L 372.588288 588.613763 
L 376.628002 587.042921 
L 382.687572 584.958344 
L 390.767 582.286466 
L 394.806714 580.703391 
L 398.846428 578.75852 
L 400.866285 577.61115 
L 402.886142 576.331894 
L 404.905999 574.913953 
L 408.945713 571.656197 
L 412.985427 567.870052 
L 417.025141 563.650997 
L 423.084712 556.81327 
L 441.263425 535.636721 
L 445.303139 530.661622 
L 449.342853 525.301316 
L 453.382567 519.366976 
L 455.402424 516.125681 
L 457.422281 512.673065 
L 459.442138 508.991472 
L 461.461995 505.067919 
L 465.501709 496.475188 
L 469.541422 486.937648 
L 473.581136 476.645536 
L 485.700278 444.908363 
L 489.739992 435.333085 
L 493.779706 426.597212 
L 497.81942 418.560361 
L 503.878991 406.90517 
L 507.918705 398.509672 
L 509.938562 393.870749 
L 511.958419 388.83342 
L 513.978276 383.332903 
L 515.998133 377.320121 
L 518.01799 370.765123 
L 520.037847 363.659585 
L 522.057704 356.01816 
L 526.097418 339.299896 
L 530.137132 321.153461 
L 540.236417 274.765639 
L 544.276131 257.810825 
L 546.295988 249.943528 
L 548.315845 242.523734 
L 550.335702 235.562992 
L 552.355559 229.060568 
L 554.375416 223.00669 
L 556.395273 217.386087 
L 558.415129 212.181528 
L 560.434986 207.377084 
L 562.454843 202.960899 
L 564.4747 198.927311 
L 566.494557 195.278271 
L 568.514414 192.024032 
L 570.534271 189.183161 
L 572.554128 186.781962 
L 574.573985 184.853428 
L 576.593842 183.435837 
L 578.613699 182.571113 
L 580.633556 182.303076 
L 582.653413 182.675636 
L 584.67327 183.731013 
L 586.693127 185.508011 
L 588.712984 188.040372 
L 590.732841 191.355215 
L 592.752698 195.471598 
L 594.772555 200.399232 
L 596.792412 206.13742 
L 598.812269 212.67429 
L 600.832126 219.986451 
L 602.851983 228.039154 
L 604.87184 236.78706 
L 606.891697 246.175649 
L 610.931411 266.62371 
L 614.971125 288.853403 
L 619.010839 312.357922 
L 625.07041 349.170966 
L 631.129981 387.247175 
L 639.209409 439.4684 
L 647.288836 491.866967 
L 651.32855 516.997269 
L 655.368264 540.565739 
L 657.388121 551.561902 
L 659.407978 561.937202 
L 661.427835 571.633119 
L 663.447692 580.604353 
L 663.447692 580.604353 
" style="fill:none;stroke:#1f77b4;stroke-linecap:square;stroke-width:1.5;"/>
   </g>
   <g id="patch_30">
    <path d="M 92.56 638.9375 
L 92.56 21.6 
" style="fill:none;stroke:#000000;stroke-linecap:square;stroke-linejoin:miter;stroke-width:0.8;"/>
   </g>
   <g id="patch_31">
    <path d="M 92.56 638.9375 
L 698.4 638.9375 
" style="fill:none;stroke:#000000;stroke-linecap:square;stroke-linejoin:miter;stroke-width:0.8;"/>
   </g>
   <g id="text_22">
    <!-- 豆瓣影片评分分布 -->
    <g transform="translate(214.896 77.33375)scale(0.3 -0.3)">
     <defs>
      <path d="M 1975 3150 
Q 1975 2550 1925 2075 
L 4025 2075 
L 4200 2350 
L 4625 2025 
L 4425 1850 
Q 4425 175 4450 -450 
L 4050 -625 
Q 4075 125 4075 1925 
L 1925 1925 
Q 1750 400 450 -500 
L 400 -425 
Q 1075 250 1337 1000 
Q 1600 1750 1612 2987 
Q 1625 4225 1600 4900 
L 2200 4625 
L 1975 4425 
L 1975 3300 
L 3675 3300 
Q 3675 4575 3650 5225 
L 4225 4950 
L 4025 4750 
L 4025 3300 
L 5075 3300 
L 5450 3675 
L 5900 3150 
L 1975 3150 
z
" id="SimSun-7247" transform="scale(0.015625)"/>
      <path d="M 3425 2725 
Q 3425 3225 3400 3625 
L 3975 3375 
L 3775 3200 
L 3775 2725 
L 4950 2725 
L 5150 2975 
L 5575 2650 
L 5350 2500 
L 5350 500 
Q 5300 100 4800 -50 
Q 4800 225 4175 475 
L 4175 575 
Q 4625 500 4812 500 
Q 5000 500 5000 700 
L 5000 2575 
L 3775 2575 
L 3775 550 
Q 3775 -25 3800 -500 
L 3400 -675 
Q 3425 250 3425 1025 
L 3425 2575 
L 2275 2575 
L 2275 125 
L 1900 -25 
Q 1925 775 1925 2525 
Q 1225 1650 300 1025 
L 250 1100 
Q 1300 2050 1762 2800 
Q 2225 3550 2375 3875 
L 825 3875 
L 600 3825 
L 400 4025 
L 2425 4025 
Q 2750 4725 2850 5225 
L 3450 4850 
L 3200 4725 
L 2825 4025 
L 5175 4025 
L 5550 4400 
L 6075 3875 
L 2775 3875 
Q 2500 3350 2175 2850 
L 2250 2725 
L 3425 2725 
z
" id="SimSun-5e03" transform="scale(0.015625)"/>
     </defs>
     <use xlink:href="#SimSun-8c46"/>
     <use x="100" xlink:href="#SimSun-74e3"/>
     <use x="200" xlink:href="#SimSun-5f71"/>
     <use x="300" xlink:href="#SimSun-7247"/>
     <use x="400" xlink:href="#SimSun-8bc4"/>
     <use x="500" xlink:href="#SimSun-5206"/>
     <use x="600" xlink:href="#SimSun-5206"/>
     <use x="700" xlink:href="#SimSun-5e03"/>
    </g>
   </g>
  </g>
 </g>
 <defs>
  <clipPath id="pd77c0a2b33">
   <rect height="617.3375" width="605.84" x="92.56" y="21.6"/>
  </clipPath>
 </defs>
</svg>
